<mxfile host="app.diagrams.net" modified="2021-09-23T04:10:35.320Z" agent="5.0 (Windows NT 10.0; Win64; x64) AppleWebKit/537.36 (KHTML, like Gecko) Chrome/93.0.4577.82 Safari/537.36" etag="nTqmGaj49N5CE1jmOAzu" version="15.2.9" type="github">
  <diagram id="R2lEEEUBdFMjLlhIrx00" name="Page-1">
    <mxGraphModel dx="1569" dy="689" grid="1" gridSize="10" guides="1" tooltips="1" connect="1" arrows="1" fold="1" page="1" pageScale="1" pageWidth="850" pageHeight="1100" math="0" shadow="0" extFonts="Permanent Marker^https://fonts.googleapis.com/css?family=Permanent+Marker">
      <root>
        <mxCell id="0" />
        <mxCell id="1" parent="0" />
        <mxCell id="C-vyLk0tnHw3VtMMgP7b-12" value="" style="edgeStyle=entityRelationEdgeStyle;endArrow=ERzeroToMany;startArrow=ERone;endFill=1;startFill=0;" parent="1" target="C-vyLk0tnHw3VtMMgP7b-17" edge="1">
          <mxGeometry width="100" height="100" relative="1" as="geometry">
            <mxPoint x="700" y="165" as="sourcePoint" />
            <mxPoint x="460" y="205" as="targetPoint" />
          </mxGeometry>
        </mxCell>
        <mxCell id="6nRkJqxGmdRw4DdgOSBY-2" value="Department&lt;br&gt;" style="rounded=0;whiteSpace=wrap;html=1;" vertex="1" parent="1">
          <mxGeometry x="940" y="120" width="160" height="100" as="geometry" />
        </mxCell>
        <mxCell id="6nRkJqxGmdRw4DdgOSBY-3" value="depName&lt;br&gt;" style="ellipse;whiteSpace=wrap;html=1;" vertex="1" parent="1">
          <mxGeometry x="1150" y="160" width="110" height="50" as="geometry" />
        </mxCell>
        <mxCell id="6nRkJqxGmdRw4DdgOSBY-4" value="&lt;u&gt;depNumber&lt;/u&gt;" style="ellipse;whiteSpace=wrap;html=1;" vertex="1" parent="1">
          <mxGeometry x="1130" y="80" width="110" height="50" as="geometry" />
        </mxCell>
        <mxCell id="6nRkJqxGmdRw4DdgOSBY-11" value="Project&lt;br&gt;" style="rounded=0;whiteSpace=wrap;html=1;" vertex="1" parent="1">
          <mxGeometry x="490" y="130" width="170" height="100" as="geometry" />
        </mxCell>
        <mxCell id="6nRkJqxGmdRw4DdgOSBY-12" value="&lt;u&gt;proNumber&lt;/u&gt;" style="ellipse;whiteSpace=wrap;html=1;" vertex="1" parent="1">
          <mxGeometry x="540" y="50" width="110" height="50" as="geometry" />
        </mxCell>
        <mxCell id="6nRkJqxGmdRw4DdgOSBY-13" value="proName" style="ellipse;whiteSpace=wrap;html=1;" vertex="1" parent="1">
          <mxGeometry x="670" y="70" width="110" height="50" as="geometry" />
        </mxCell>
        <mxCell id="6nRkJqxGmdRw4DdgOSBY-16" value="proLocation&lt;br&gt;" style="ellipse;whiteSpace=wrap;html=1;" vertex="1" parent="1">
          <mxGeometry x="690" y="140" width="110" height="50" as="geometry" />
        </mxCell>
        <mxCell id="6nRkJqxGmdRw4DdgOSBY-17" value="" style="endArrow=none;html=1;entryX=0.5;entryY=1;entryDx=0;entryDy=0;exitX=0.5;exitY=0;exitDx=0;exitDy=0;" edge="1" parent="1" source="6nRkJqxGmdRw4DdgOSBY-11" target="6nRkJqxGmdRw4DdgOSBY-12">
          <mxGeometry width="50" height="50" relative="1" as="geometry">
            <mxPoint x="550" y="250" as="sourcePoint" />
            <mxPoint x="600" y="200" as="targetPoint" />
          </mxGeometry>
        </mxCell>
        <mxCell id="6nRkJqxGmdRw4DdgOSBY-18" value="" style="endArrow=none;html=1;entryX=0;entryY=1;entryDx=0;entryDy=0;exitX=0.75;exitY=0;exitDx=0;exitDy=0;" edge="1" parent="1" source="6nRkJqxGmdRw4DdgOSBY-11" target="6nRkJqxGmdRw4DdgOSBY-13">
          <mxGeometry width="50" height="50" relative="1" as="geometry">
            <mxPoint x="550" y="250" as="sourcePoint" />
            <mxPoint x="600" y="200" as="targetPoint" />
          </mxGeometry>
        </mxCell>
        <mxCell id="6nRkJqxGmdRw4DdgOSBY-19" value="" style="endArrow=none;html=1;entryX=0;entryY=0.5;entryDx=0;entryDy=0;exitX=1;exitY=0.5;exitDx=0;exitDy=0;" edge="1" parent="1" source="6nRkJqxGmdRw4DdgOSBY-11" target="6nRkJqxGmdRw4DdgOSBY-16">
          <mxGeometry width="50" height="50" relative="1" as="geometry">
            <mxPoint x="550" y="250" as="sourcePoint" />
            <mxPoint x="600" y="200" as="targetPoint" />
          </mxGeometry>
        </mxCell>
        <mxCell id="6nRkJqxGmdRw4DdgOSBY-20" value="Employee&lt;br&gt;" style="rounded=0;whiteSpace=wrap;html=1;" vertex="1" parent="1">
          <mxGeometry x="780" y="410" width="180" height="100" as="geometry" />
        </mxCell>
        <mxCell id="6nRkJqxGmdRw4DdgOSBY-21" value="&lt;u&gt;empSecurityNumber&lt;/u&gt;" style="ellipse;whiteSpace=wrap;html=1;" vertex="1" parent="1">
          <mxGeometry x="530" y="570" width="130" height="50" as="geometry" />
        </mxCell>
        <mxCell id="6nRkJqxGmdRw4DdgOSBY-22" value="Dependent&lt;br&gt;" style="rounded=0;whiteSpace=wrap;html=1;" vertex="1" parent="1">
          <mxGeometry x="280" y="400" width="170" height="100" as="geometry" />
        </mxCell>
        <mxCell id="6nRkJqxGmdRw4DdgOSBY-23" value="Address&lt;br&gt;" style="ellipse;whiteSpace=wrap;html=1;" vertex="1" parent="1">
          <mxGeometry x="900" y="580" width="110" height="50" as="geometry" />
        </mxCell>
        <mxCell id="6nRkJqxGmdRw4DdgOSBY-24" value="Salary&lt;br&gt;" style="ellipse;whiteSpace=wrap;html=1;" vertex="1" parent="1">
          <mxGeometry x="1030" y="570" width="110" height="50" as="geometry" />
        </mxCell>
        <mxCell id="6nRkJqxGmdRw4DdgOSBY-25" value="Sex" style="ellipse;whiteSpace=wrap;html=1;" vertex="1" parent="1">
          <mxGeometry x="780" y="580" width="110" height="50" as="geometry" />
        </mxCell>
        <mxCell id="6nRkJqxGmdRw4DdgOSBY-26" value="Birthdate&lt;br&gt;" style="ellipse;whiteSpace=wrap;html=1;" vertex="1" parent="1">
          <mxGeometry x="660" y="580" width="110" height="50" as="geometry" />
        </mxCell>
        <mxCell id="6nRkJqxGmdRw4DdgOSBY-37" value="&lt;u&gt;depenNum&lt;/u&gt;" style="ellipse;whiteSpace=wrap;html=1;" vertex="1" parent="1">
          <mxGeometry x="100" y="390" width="110" height="50" as="geometry" />
        </mxCell>
        <mxCell id="6nRkJqxGmdRw4DdgOSBY-38" value="Name&lt;br&gt;" style="ellipse;whiteSpace=wrap;html=1;" vertex="1" parent="1">
          <mxGeometry x="90" y="460" width="110" height="50" as="geometry" />
        </mxCell>
        <mxCell id="6nRkJqxGmdRw4DdgOSBY-39" value="Sex&lt;br&gt;" style="ellipse;whiteSpace=wrap;html=1;" vertex="1" parent="1">
          <mxGeometry x="150" y="530" width="110" height="50" as="geometry" />
        </mxCell>
        <mxCell id="6nRkJqxGmdRw4DdgOSBY-40" value="Birthdate" style="ellipse;whiteSpace=wrap;html=1;" vertex="1" parent="1">
          <mxGeometry x="170" y="600" width="110" height="50" as="geometry" />
        </mxCell>
        <mxCell id="6nRkJqxGmdRw4DdgOSBY-41" value="Relationship" style="ellipse;whiteSpace=wrap;html=1;" vertex="1" parent="1">
          <mxGeometry x="370" y="600" width="110" height="50" as="geometry" />
        </mxCell>
        <mxCell id="6nRkJqxGmdRw4DdgOSBY-42" value="" style="endArrow=none;html=1;exitX=1;exitY=0.5;exitDx=0;exitDy=0;entryX=0;entryY=0.5;entryDx=0;entryDy=0;" edge="1" parent="1" source="6nRkJqxGmdRw4DdgOSBY-37" target="6nRkJqxGmdRw4DdgOSBY-22">
          <mxGeometry width="50" height="50" relative="1" as="geometry">
            <mxPoint x="510" y="350" as="sourcePoint" />
            <mxPoint x="560" y="300" as="targetPoint" />
          </mxGeometry>
        </mxCell>
        <mxCell id="6nRkJqxGmdRw4DdgOSBY-43" value="" style="endArrow=none;html=1;exitX=1;exitY=0.5;exitDx=0;exitDy=0;entryX=0;entryY=0.75;entryDx=0;entryDy=0;" edge="1" parent="1" source="6nRkJqxGmdRw4DdgOSBY-38" target="6nRkJqxGmdRw4DdgOSBY-22">
          <mxGeometry width="50" height="50" relative="1" as="geometry">
            <mxPoint x="510" y="350" as="sourcePoint" />
            <mxPoint x="560" y="300" as="targetPoint" />
          </mxGeometry>
        </mxCell>
        <mxCell id="6nRkJqxGmdRw4DdgOSBY-44" value="" style="endArrow=none;html=1;exitX=1;exitY=0;exitDx=0;exitDy=0;entryX=0;entryY=1;entryDx=0;entryDy=0;" edge="1" parent="1" source="6nRkJqxGmdRw4DdgOSBY-39" target="6nRkJqxGmdRw4DdgOSBY-22">
          <mxGeometry width="50" height="50" relative="1" as="geometry">
            <mxPoint x="210" y="495" as="sourcePoint" />
            <mxPoint x="290" y="485" as="targetPoint" />
          </mxGeometry>
        </mxCell>
        <mxCell id="6nRkJqxGmdRw4DdgOSBY-45" value="" style="endArrow=none;html=1;exitX=1;exitY=0;exitDx=0;exitDy=0;entryX=0.25;entryY=1;entryDx=0;entryDy=0;" edge="1" parent="1" source="6nRkJqxGmdRw4DdgOSBY-40" target="6nRkJqxGmdRw4DdgOSBY-22">
          <mxGeometry width="50" height="50" relative="1" as="geometry">
            <mxPoint x="253.89087296526031" y="547.3223304703365" as="sourcePoint" />
            <mxPoint x="290" y="510" as="targetPoint" />
          </mxGeometry>
        </mxCell>
        <mxCell id="6nRkJqxGmdRw4DdgOSBY-46" value="" style="endArrow=none;html=1;exitX=0.5;exitY=0;exitDx=0;exitDy=0;entryX=0.75;entryY=1;entryDx=0;entryDy=0;" edge="1" parent="1" source="6nRkJqxGmdRw4DdgOSBY-41" target="6nRkJqxGmdRw4DdgOSBY-22">
          <mxGeometry width="50" height="50" relative="1" as="geometry">
            <mxPoint x="263.8908729652603" y="557.3223304703365" as="sourcePoint" />
            <mxPoint x="300" y="520" as="targetPoint" />
          </mxGeometry>
        </mxCell>
        <mxCell id="6nRkJqxGmdRw4DdgOSBY-47" value="" style="rhombus;whiteSpace=wrap;html=1;" vertex="1" parent="1">
          <mxGeometry x="1200" y="320" width="80" height="80" as="geometry" />
        </mxCell>
        <mxCell id="6nRkJqxGmdRw4DdgOSBY-48" value="" style="rhombus;whiteSpace=wrap;html=1;" vertex="1" parent="1">
          <mxGeometry x="970" y="300" width="80" height="80" as="geometry" />
        </mxCell>
        <mxCell id="6nRkJqxGmdRw4DdgOSBY-49" value="" style="rhombus;whiteSpace=wrap;html=1;" vertex="1" parent="1">
          <mxGeometry x="640" y="280" width="80" height="80" as="geometry" />
        </mxCell>
        <mxCell id="6nRkJqxGmdRw4DdgOSBY-50" value="" style="rhombus;whiteSpace=wrap;html=1;" vertex="1" parent="1">
          <mxGeometry x="580" y="380" width="80" height="80" as="geometry" />
        </mxCell>
        <mxCell id="6nRkJqxGmdRw4DdgOSBY-51" value="" style="endArrow=none;html=1;entryX=0;entryY=0.5;entryDx=0;entryDy=0;exitX=1;exitY=0.25;exitDx=0;exitDy=0;" edge="1" parent="1" source="6nRkJqxGmdRw4DdgOSBY-2" target="6nRkJqxGmdRw4DdgOSBY-4">
          <mxGeometry width="50" height="50" relative="1" as="geometry">
            <mxPoint x="660" y="370" as="sourcePoint" />
            <mxPoint x="710" y="320" as="targetPoint" />
          </mxGeometry>
        </mxCell>
        <mxCell id="6nRkJqxGmdRw4DdgOSBY-52" value="" style="endArrow=none;html=1;entryX=0;entryY=0.5;entryDx=0;entryDy=0;exitX=1;exitY=0.5;exitDx=0;exitDy=0;" edge="1" parent="1" source="6nRkJqxGmdRw4DdgOSBY-2" target="6nRkJqxGmdRw4DdgOSBY-3">
          <mxGeometry width="50" height="50" relative="1" as="geometry">
            <mxPoint x="1110" y="155" as="sourcePoint" />
            <mxPoint x="1140" y="115" as="targetPoint" />
          </mxGeometry>
        </mxCell>
        <mxCell id="6nRkJqxGmdRw4DdgOSBY-53" value="" style="endArrow=none;html=1;exitX=0;exitY=1;exitDx=0;exitDy=0;entryX=0.5;entryY=0;entryDx=0;entryDy=0;" edge="1" parent="1" source="6nRkJqxGmdRw4DdgOSBY-20" target="6nRkJqxGmdRw4DdgOSBY-21">
          <mxGeometry width="50" height="50" relative="1" as="geometry">
            <mxPoint x="660" y="370" as="sourcePoint" />
            <mxPoint x="710" y="320" as="targetPoint" />
          </mxGeometry>
        </mxCell>
      </root>
    </mxGraphModel>
  </diagram>
</mxfile>
